<svg xmlns="http://www.w3.org/2000/svg" width="512" height="512" viewBox="0 0 512 512">
  <defs>
    <linearGradient id="flame-gradient" x1="0%" y1="100%" x2="0%" y2="0%">
      <stop offset="0%" style="stop-color:#ea580c"/>
      <stop offset="50%" style="stop-color:#f97316"/>
      <stop offset="100%" style="stop-color:#fb923c"/>
    </linearGradient>
  </defs>
  <rect width="512" height="512" rx="128" fill="#09090b"/>
  <g transform="translate(128, 80) scale(1.5)">
    <path d="M85 172c-18.5-18.5-28.5-42.5-28.5-68C56.5 53.5 96.5 10 96.5 10s10 25 30 45c15 15 35 20 55 15-5 25-20 45-40 60 30-5 55-25 70-55 10 35 5 75-20 105-25 30-65 45-105 35 25 5 50 0 70-15-25 20-60 25-90 10-30-15-50-45-50-80 0 30 15 55 40 75-15-15-25-35-25-58 0-35 30-65 55-70-15 20-15 50 0 70 10 15 25 25 45 30-20-10-35-30-40-55 10 15 25 25 45 25 25 0 45-20 45-45 0-20-15-40-35-45 25 5 45 25 45 50 0 30-25 55-55 55-35 0-65-30-65-65z" fill="url(#flame-gradient)"/>
  </g>
</svg>
